<svg width="18" height="20" viewBox="0 0 18 20" fill="none" xmlns="http://www.w3.org/2000/svg">
<path d="M17.2499 5.8302H8.53658" stroke="white" stroke-linecap="round" stroke-linejoin="round"/>
<path d="M2.75552 5.8302H0.75" stroke="white" stroke-linecap="round" stroke-linejoin="round"/>
<path d="M17.25 14.1697H15.2444" stroke="white" stroke-linecap="round" stroke-linejoin="round"/>
<path d="M9.46335 14.1697H0.75" stroke="white" stroke-linecap="round" stroke-linejoin="round"/>
<path d="M8.5365 5.83032C8.5365 7.59442 7.25268 9.03781 5.64979 9.03781C4.04689 9.03781 2.74786 7.59442 2.74786 5.83032C2.74786 4.0662 4.04689 2.60596 5.65738 2.60596C7.26787 2.60596 8.54415 4.04932 8.54415 5.83032H8.5365Z" stroke="white" stroke-linecap="round" stroke-linejoin="round"/>
<path d="M15.2444 14.1697C15.2444 15.9507 13.9454 17.3941 12.3577 17.3941C10.77 17.3941 9.45578 15.9507 9.45578 14.1697C9.45578 12.3887 10.7548 10.9623 12.3577 10.9623C13.9606 10.9623 15.2444 12.4056 15.2444 14.1697Z" stroke="white" stroke-linecap="round" stroke-linejoin="round"/>
</svg>
