<svg width="28" height="28" viewBox="0 0 28 28" fill="none" xmlns="http://www.w3.org/2000/svg">
<g filter="url(#filter0_i_7_584)">
<path d="M21.0622 22.9811H6.83148C6.54444 22.9811 6.30273 22.7393 6.30273 22.4372C6.30273 20.6092 7.72279 19.1439 9.47519 19.1439H18.1918C23.9476 19.1439 24.8239 15.5183 25.8964 10.2459C26.1986 8.72012 26.3496 7.96477 25.987 7.45114C25.6244 6.9375 24.9144 6.9375 23.4945 6.9375H6.30273" stroke="black" stroke-linecap="round" stroke-linejoin="round"/>
<path d="M8.85592 19.1439L5.50219 3.11541C5.21516 1.9673 4.18789 1.16663 3.00955 1.16663H1.80099" stroke="black" stroke-linecap="round"/>
<path d="M11.7566 26.8334C12.8162 26.8334 13.6752 25.9744 13.6752 24.9148C13.6752 23.8552 12.8162 22.9962 11.7566 22.9962C10.697 22.9962 9.83804 23.8552 9.83804 24.9148C9.83804 25.9744 10.697 26.8334 11.7566 26.8334Z" stroke="black"/>
<path d="M21.0925 26.8334C22.1521 26.8334 23.0111 25.9744 23.0111 24.9148C23.0111 23.8552 22.1521 22.9962 21.0925 22.9962C20.0329 22.9962 19.1739 23.8552 19.1739 24.9148C19.1739 25.9744 20.0329 26.8334 21.0925 26.8334Z" stroke="black"/>
</g>
<defs>
<filter id="filter0_i_7_584" x="0" y="0" width="28" height="28" filterUnits="userSpaceOnUse" color-interpolation-filters="sRGB">
<feFlood flood-opacity="0" result="BackgroundImageFix"/>
<feBlend mode="normal" in="SourceGraphic" in2="BackgroundImageFix" result="shape"/>
<feColorMatrix in="SourceAlpha" type="matrix" values="0 0 0 0 0 0 0 0 0 0 0 0 0 0 0 0 0 0 127 0" result="hardAlpha"/>
<feOffset/>
<feGaussianBlur stdDeviation="3"/>
<feComposite in2="hardAlpha" operator="arithmetic" k2="-1" k3="1"/>
<feColorMatrix type="matrix" values="0 0 0 0 0 0 0 0 0 0 0 0 0 0 0 0 0 0 1 0"/>
<feBlend mode="normal" in2="shape" result="effect1_innerShadow_7_584"/>
</filter>
</defs>
</svg>
