<svg width="41" height="40" viewBox="0 0 41 40" fill="none" xmlns="http://www.w3.org/2000/svg">
<path d="M39.9051 8.2283C38.5134 8.84496 37.0184 9.26163 35.4468 9.44997C37.0684 8.47962 38.2817 6.95241 38.8601 5.1533C37.3365 6.05828 35.669 6.69529 33.9301 7.03663C32.7607 5.78807 31.2119 4.96051 29.524 4.68242C27.8361 4.40434 26.1036 4.69128 24.5955 5.49872C23.0874 6.30616 21.8881 7.5889 21.1837 9.14781C20.4793 10.7067 20.3093 12.4545 20.7001 14.12C17.6129 13.965 14.5928 13.1625 11.8358 11.7648C9.0788 10.3671 6.6465 8.40523 4.69677 6.00663C4.0301 7.15663 3.64677 8.48997 3.64677 9.90997C3.64602 11.1883 3.96082 12.447 4.56323 13.5745C5.16564 14.702 6.03704 15.6634 7.1001 16.3733C5.86723 16.3341 4.66156 16.0009 3.58343 15.4016V15.5016C3.58331 17.2945 4.20349 19.0323 5.33874 20.42C6.47399 21.8077 8.05439 22.7598 9.81177 23.115C8.66807 23.4245 7.469 23.4701 6.3051 23.2483C6.80093 24.791 7.76676 26.14 9.06738 27.1065C10.368 28.073 11.9383 28.6086 13.5584 28.6383C10.8082 30.7973 7.41158 31.9684 3.9151 31.9633C3.29574 31.9635 2.67689 31.9273 2.06177 31.855C5.61089 34.1369 9.74233 35.348 13.9618 35.3433C28.2451 35.3433 36.0534 23.5133 36.0534 13.2533C36.0534 12.92 36.0451 12.5833 36.0301 12.25C37.5489 11.1516 38.86 9.79146 39.9018 8.2333L39.9051 8.2283Z" fill="#181818" fill-opacity="0.7"/>
</svg>
